<svg width="44" height="44" viewBox="0 0 44 44" fill="none" xmlns="http://www.w3.org/2000/svg">
<path d="M2 22.1563C2 12.7289 2 8.01309 4.92842 5.08467C7.85684 2.15625 12.5705 2.15625 22 2.15625C31.4274 2.15625 36.1432 2.15625 39.0716 5.08467C42 8.01309 42 12.7268 42 22.1563C42 31.5836 42 36.2994 39.0716 39.2278C36.1432 42.1562 31.4295 42.1563 22 42.1563C12.5726 42.1563 7.85684 42.1562 4.92842 39.2278C2 36.2994 2 31.5857 2 22.1563Z" stroke="black" stroke-width="3" stroke-linecap="round" stroke-linejoin="round"/>
<path d="M33.5957 10.5771H33.5747M31.4736 22.1561C31.4736 24.6687 30.4755 27.0783 28.6988 28.855C26.9222 30.6317 24.5125 31.6298 21.9999 31.6298C19.4874 31.6298 17.0777 30.6317 15.301 28.855C13.5244 27.0783 12.5262 24.6687 12.5262 22.1561C12.5262 19.6435 13.5244 17.2339 15.301 15.4572C17.0777 13.6805 19.4874 12.6824 21.9999 12.6824C24.5125 12.6824 26.9222 13.6805 28.6988 15.4572C30.4755 17.2339 31.4736 19.6435 31.4736 22.1561Z" stroke="black" stroke-width="3" stroke-linecap="round" stroke-linejoin="round"/>
</svg>
