<svg width="41" height="40" viewBox="0 0 41 40" fill="none" xmlns="http://www.w3.org/2000/svg">
<path d="M20.7916 0C9.75622 0 0.791626 8.96461 0.791626 20C0.791626 31.0354 9.75622 40 20.7916 40C31.827 40 40.7916 31.0354 40.7916 20C40.7916 8.96461 31.827 0 20.7916 0ZM20.7916 1.73913C30.8871 1.73913 39.0525 9.9045 39.0525 20C39.0525 30.0955 30.8871 38.2609 20.7916 38.2609C10.6961 38.2609 2.53076 30.0955 2.53076 20C2.53076 9.9045 10.6961 1.73913 20.7916 1.73913ZM28.6941 10.4654C28.0994 10.4654 27.431 10.6031 26.6493 10.8849C25.4494 11.3172 11.4859 17.245 9.59452 18.048L9.53313 18.074L9.53195 18.0746C8.60297 18.4695 6.87519 19.2039 6.87519 20.9545C6.87519 22.1154 7.55542 22.9457 8.89455 23.4239C9.61455 23.6804 11.3246 24.1988 12.3168 24.4718C12.7376 24.5875 13.1849 24.6467 13.6449 24.6467C14.5449 24.6467 15.4506 24.4225 16.1602 24.0268C16.1541 24.1729 16.1581 24.3206 16.1755 24.4684C16.2824 25.3815 16.8454 26.2402 17.6802 26.7663C18.2263 27.1107 22.6867 30.0993 23.3528 30.574C24.2884 31.2427 25.3228 31.5965 26.3419 31.5965C28.2879 31.5965 28.942 29.589 29.2571 28.6219L29.258 28.6192C29.7145 27.2166 31.424 15.8106 31.617 13.7993C31.7483 12.421 31.1739 11.286 30.08 10.7626C29.6704 10.5652 29.2028 10.4654 28.6941 10.4654ZM28.6941 12.2045C28.9333 12.2045 29.1468 12.244 29.3276 12.3319C29.7389 12.5293 29.9482 12.9693 29.8847 13.6345C29.6743 15.8284 27.969 26.9643 27.6055 28.0808C27.2942 29.0356 26.9662 29.8573 26.3419 29.8573C25.7176 29.8573 25.0355 29.6385 24.3633 29.1576C23.6911 28.6776 19.2275 25.6843 18.6075 25.2938C18.064 24.9512 17.4889 24.0971 18.2984 23.2711C18.7134 22.8479 20.8289 20.7871 22.4721 19.1862C23.4698 18.2143 24.2934 17.4119 24.4567 17.2486C24.7784 16.926 24.628 16.537 24.3123 16.537C24.2036 16.537 24.0735 16.5828 23.9387 16.6933C23.41 17.1254 16.0393 22.0576 15.401 22.4541C14.9784 22.7168 14.324 22.9059 13.6449 22.9059C13.3553 22.9059 13.0622 22.8712 12.7804 22.7938C11.7995 22.5234 10.1396 22.0198 9.48048 21.785C8.84657 21.5589 8.61601 21.3423 8.61601 20.9545C8.61601 20.4032 9.39418 20.0226 10.2142 19.6739C11.0803 19.3061 26.0665 12.9421 27.2386 12.5204C27.7812 12.3239 28.2776 12.2045 28.6941 12.2045Z" fill="black"/>
<path d="M20.7916 0C9.75622 0 0.791626 8.96461 0.791626 20C0.791626 31.0354 9.75622 40 20.7916 40C31.827 40 40.7916 31.0354 40.7916 20C40.7916 8.96461 31.827 0 20.7916 0ZM20.7916 1.73913C30.8871 1.73913 39.0525 9.9045 39.0525 20C39.0525 30.0955 30.8871 38.2609 20.7916 38.2609C10.6961 38.2609 2.53076 30.0955 2.53076 20C2.53076 9.9045 10.6961 1.73913 20.7916 1.73913ZM28.6941 10.4654C28.0994 10.4654 27.431 10.6031 26.6493 10.8849C25.4494 11.3172 11.4859 17.245 9.59452 18.048L9.53313 18.074L9.53195 18.0746C8.60297 18.4695 6.87519 19.2039 6.87519 20.9545C6.87519 22.1154 7.55542 22.9457 8.89455 23.4239C9.61455 23.6804 11.3246 24.1988 12.3168 24.4718C12.7376 24.5875 13.1849 24.6467 13.6449 24.6467C14.5449 24.6467 15.4506 24.4225 16.1602 24.0268C16.1541 24.1729 16.1581 24.3206 16.1755 24.4684C16.2824 25.3815 16.8454 26.2402 17.6802 26.7663C18.2263 27.1107 22.6867 30.0993 23.3528 30.574C24.2884 31.2427 25.3228 31.5965 26.3419 31.5965C28.2879 31.5965 28.942 29.589 29.2571 28.6219L29.258 28.6192C29.7145 27.2166 31.424 15.8106 31.617 13.7993C31.7483 12.421 31.1739 11.286 30.08 10.7626C29.6704 10.5652 29.2028 10.4654 28.6941 10.4654ZM28.6941 12.2045C28.9333 12.2045 29.1468 12.244 29.3276 12.3319C29.7389 12.5293 29.9482 12.9693 29.8847 13.6345C29.6743 15.8284 27.969 26.9643 27.6055 28.0808C27.2942 29.0356 26.9662 29.8573 26.3419 29.8573C25.7176 29.8573 25.0355 29.6385 24.3633 29.1576C23.6911 28.6776 19.2275 25.6843 18.6075 25.2938C18.064 24.9512 17.4889 24.0971 18.2984 23.2711C18.7134 22.8479 20.8289 20.7871 22.4721 19.1862C23.4698 18.2143 24.2934 17.4119 24.4567 17.2486C24.7784 16.926 24.628 16.537 24.3123 16.537C24.2036 16.537 24.0735 16.5828 23.9387 16.6933C23.41 17.1254 16.0393 22.0576 15.401 22.4541C14.9784 22.7168 14.324 22.9059 13.6449 22.9059C13.3553 22.9059 13.0622 22.8712 12.7804 22.7938C11.7995 22.5234 10.1396 22.0198 9.48048 21.785C8.84657 21.5589 8.61601 21.3423 8.61601 20.9545C8.61601 20.4032 9.39418 20.0226 10.2142 19.6739C11.0803 19.3061 26.0665 12.9421 27.2386 12.5204C27.7812 12.3239 28.2776 12.2045 28.6941 12.2045Z" stroke="black"/>
</svg>
