<svg width="41" height="40" viewBox="0 0 41 40" fill="none" xmlns="http://www.w3.org/2000/svg">
<path d="M34.9625 5.82009C33.1194 3.96831 30.9243 2.50003 28.5052 1.50083C26.0861 0.501624 23.4913 -0.00852631 20.872 0.00010779C9.89715 0.00010779 0.95243 8.90009 0.95243 19.8201C0.95243 23.32 1.87705 26.72 3.6057 29.72L0.791626 40L11.3444 37.24C14.259 38.82 17.5353 39.66 20.872 39.66C31.8469 39.66 40.7916 30.76 40.7916 19.8401C40.7916 14.5401 38.7213 9.56008 34.9625 5.82009ZM20.872 36.3C17.8972 36.3 14.9826 35.5 12.4298 34L11.8268 33.64L5.55545 35.28L7.22379 29.2L6.82178 28.58C5.16861 25.9542 4.29097 22.9186 4.28911 19.8201C4.28911 10.7401 11.7263 3.3401 20.8519 3.3401C25.274 3.3401 29.4348 5.0601 32.5504 8.18009C34.0934 9.70781 35.3161 11.5252 36.1477 13.5267C36.9792 15.5283 37.4031 17.6742 37.3946 19.8401C37.4348 28.92 29.9977 36.3 20.872 36.3ZM29.9575 23.98C29.4549 23.74 27.0027 22.5401 26.5605 22.3601C26.0982 22.2001 25.7766 22.1201 25.4348 22.6C25.0931 23.1 24.1484 24.22 23.867 24.54C23.5856 24.88 23.2841 24.92 22.7816 24.66C22.2791 24.42 20.671 23.88 18.7816 22.2001C17.2941 20.8801 16.3092 19.2601 16.0077 18.7601C15.7263 18.2601 15.9675 18.0001 16.2288 17.7401C16.4499 17.5201 16.7313 17.1601 16.9725 16.8801C17.2137 16.6001 17.3142 16.3801 17.475 16.0601C17.6358 15.7201 17.5554 15.4401 17.4348 15.2001C17.3142 14.9601 16.3092 12.5201 15.9072 11.5201C15.5052 10.5601 15.0831 10.6801 14.7816 10.6601H13.8168C13.475 10.6601 12.9524 10.7801 12.4901 11.2801C12.0479 11.7801 10.7615 12.9801 10.7615 15.4201C10.7615 17.8601 12.5504 20.2201 12.7916 20.5401C13.0328 20.8801 16.3092 25.88 21.2941 28.02C22.4801 28.54 23.4047 28.84 24.1283 29.06C25.3142 29.44 26.3997 29.38 27.264 29.26C28.2288 29.12 30.2188 28.06 30.6208 26.9C31.0429 25.74 31.0429 24.76 30.9022 24.54C30.7615 24.32 30.46 24.22 29.9575 23.98Z" fill="black"/>
</svg>
