<svg width="201" height="47" viewBox="0 0 201 47" fill="none" xmlns="http://www.w3.org/2000/svg">
<path d="M4.03342 33.7764V41.9646L24.5376 46.3999M24.5376 46.3999L46.3863 42.9882V34.7999M24.5376 46.3999V18.7646M24.5376 18.7646L46.3863 14.6705V22.8587M24.5376 18.7646L4.03342 13.9881V22.8587" stroke="url(#paint0_linear_13_35)"/>
<path d="M4.70589 34.1166C7.19208 34.1166 8.57776 32.4043 8.96339 30.0782C9.10295 29.2363 8.51179 28.4974 7.80438 28.0201C6.19724 26.9358 5.18791 25.08 4.83655 23.4484C4.72514 22.9311 4.28602 22.5018 3.77148 22.6257C1.37489 23.2028 0 25.9745 0 28.6578C0 31.6726 1.73561 34.1166 4.70589 34.1166Z" stroke="#FC0061" stroke-width="2"/>
<path d="M44.6931 35.1001C42.1455 34.903 40.9082 32.7802 40.7726 30.0521C40.7315 29.2258 41.3358 28.5492 42.0385 28.1145C43.8041 27.022 45.0046 24.9452 45.482 23.1026C45.6152 22.5881 46.0887 22.1899 46.59 22.3678C48.9291 23.1977 50.0668 26.3909 49.8423 29.3798C49.5899 32.7395 47.6548 35.3293 44.6931 35.1001Z" stroke="#5E0035" stroke-opacity="0.97" stroke-width="2"/>
<path d="M31.0965 7.16473C31.0965 10.876 28.281 13.8295 24.8738 13.8295C21.4666 13.8295 18.6511 10.876 18.6511 7.16473C18.6511 3.45343 21.4666 0.5 24.8738 0.5C28.281 0.5 31.0965 3.45343 31.0965 7.16473Z" stroke="url(#paint1_linear_13_35)"/>
<path d="M61.1767 40.5992V8.5285L65.2103 16.0344" stroke="#020202"/>
<path d="M71.9327 31.0462L75.2941 40.9404V8.86969" stroke="#020202"/>
<path d="M83.6975 27.9753V9.21051H94.1176" stroke="#020202"/>
<path d="M85.7143 30.3647H83.6975V40.9412H94.1176" stroke="#020202"/>
<path d="M100.84 8.86969L106.218 40.9404" stroke="#020202"/>
<path d="M108.907 30.2501L112.88 12.0768L120.825 40.9404L126.386 8.86969" stroke="#020202"/>
<path d="M139.832 27.2933V8.5285H149.916" stroke="#020202"/>
<path d="M141.849 30.7056H139.832V40.9409H150.588" stroke="#020202"/>
<path d="M157.983 20.4697V8.5285H163.697" stroke="#020202"/>
<path d="M157.983 33.0944H165.378L171.092 41.965" stroke="#020202"/>
<path d="M178.823 42.3057L189.244 9.89386L200 42.3057" stroke="#020202"/>
<path d="M187.899 35.4827L190.588 42.3063" stroke="#020202"/>
<path d="M163.698 8.5285V8.5285C173.239 13.9731 172.95 27.8233 163.191 32.8356L162.689 33.0932" stroke="#020202" stroke-linecap="round"/>
<defs>
<linearGradient id="paint0_linear_13_35" x1="3.36115" y1="24.9058" x2="46.3876" y2="26.2305" gradientUnits="userSpaceOnUse">
<stop stop-color="#FC0061"/>
<stop offset="1" stop-color="#5E0035"/>
</linearGradient>
<linearGradient id="paint1_linear_13_35" x1="18.8234" y1="6.82355" x2="31.5965" y2="6.82355" gradientUnits="userSpaceOnUse">
<stop stop-color="#FC0061"/>
<stop offset="1" stop-color="#5E0035"/>
</linearGradient>
</defs>
</svg>
