<svg width="298" height="69" viewBox="0 0 298 69" fill="none" xmlns="http://www.w3.org/2000/svg">
<path d="M6 49.5V61.5L36.5 68M36.5 68L69 63V51M36.5 68V27.5M36.5 27.5L69 21.5V33.5M36.5 27.5L6 20.5V33.5" stroke="url(#paint0_linear_13_35)"/>
<path d="M11.7069 42.2945C12.2591 42.6004 12.4624 43.0219 12.4294 43.3212C12.2391 45.0457 11.6726 46.4687 10.7892 47.4455C9.92723 48.3984 8.70001 49 7 49C5.08688 49 3.62011 48.236 2.61364 47.0194C1.59135 45.7837 1 44.0228 1 42C1 40.1202 1.5117 38.2259 2.43599 36.7563C3.33684 35.3239 4.59138 34.345 6.11722 34.0759C6.12033 34.0847 6.12286 34.0941 6.12456 34.104C6.62264 36.9992 8.4965 40.5163 11.7069 42.2945Z" stroke="#FC0061" stroke-width="2"/>
<path d="M62.4115 42.4126C61.8668 42.6879 61.6288 43.0872 61.6312 43.401C61.6468 45.4271 62.0875 47.1466 62.9041 48.3651C63.6965 49.5473 64.8749 50.3138 66.5572 50.442C68.4206 50.5841 69.9404 49.8664 71.066 48.5656C72.2121 47.241 72.9681 45.2807 73.1435 42.9799C73.3062 40.8462 72.9505 38.6592 72.1412 36.9231C71.3529 35.232 70.1861 34.0629 68.7344 33.6481C68.0236 36.8236 65.8468 40.6763 62.4115 42.4126Z" stroke="#5E0035" stroke-opacity="0.97" stroke-width="2"/>
<path d="M46.5 10.5C46.5 16.0461 42.224 20.5 37 20.5C31.776 20.5 27.5 16.0461 27.5 10.5C27.5 4.95388 31.776 0.5 37 0.5C42.224 0.5 46.5 4.95388 46.5 10.5Z" stroke="url(#paint1_linear_13_35)"/>
<path d="M91 59.5V12.5L97 23.5" stroke="#020202"/>
<path d="M107 45.5L112 60V13" stroke="#020202"/>
<path d="M124.5 41V13.5H140" stroke="#020202"/>
<path d="M127.5 44.5H124.5V60H140" stroke="#020202"/>
<path d="M150 13L158 60" stroke="#020202"/>
<path d="M162 44.3333L167.909 17.7L179.727 60L188 13" stroke="#020202"/>
<path d="M208 40V12.5H223" stroke="#020202"/>
<path d="M211 45H208V60H224" stroke="#020202"/>
<path d="M235 30V12.5H243.5" stroke="#020202"/>
<path d="M235 48.5H246L254.5 61.5" stroke="#020202"/>
<path d="M266 62L281.5 14.5L297.5 62" stroke="#020202"/>
<path d="M279.5 52L283.5 62" stroke="#020202"/>
<path d="M243.5 12.5L245.463 13.6036C258.707 21.0498 258.287 40.2584 244.73 47.1185L242 48.5" stroke="#020202" stroke-linecap="round"/>
<defs>
<linearGradient id="paint0_linear_13_35" x1="5" y1="36.5" x2="69" y2="38.5" gradientUnits="userSpaceOnUse">
<stop stop-color="#FC0061"/>
<stop offset="1" stop-color="#5E0035"/>
</linearGradient>
<linearGradient id="paint1_linear_13_35" x1="28" y1="10" x2="47" y2="10" gradientUnits="userSpaceOnUse">
<stop stop-color="#FC0061"/>
<stop offset="1" stop-color="#5E0035"/>
</linearGradient>
</defs>
</svg>
