<svg width="150" height="40" viewBox="0 0 298 69" fill="none" xmlns="http://www.w3.org/2000/svg">
<path d="M6 50V61.5L36.5 68M36.5 68L69 63V51M36.5 68V27.5M36.5 27.5L69 21.5V33.5M36.5 27.5L6 20.5V33.5" stroke="#FC2578"/>
<path d="M69 52.5V63L36.5 68V27.5L69 22V31.5" stroke="#FC0061"/>
<path d="M7 50C10.9298 50 13.0112 47.1664 13.4233 43.4309C13.5173 42.5794 12.9408 41.8349 12.1914 41.4198C9.30792 39.8226 7.57 36.6078 7.11008 33.9345C7.02041 33.4132 6.58384 32.9903 6.06121 33.0715C2.21822 33.6687 0 37.9046 0 42C0 46.4183 2.58172 50 7 50Z" stroke="#FC2578" stroke-opacity="0.81" stroke-width="2"/>
<path d="M67.3292 51.4391C63.342 51.1352 61.5124 47.7072 61.4792 43.4087C61.4728 42.578 62.0669 41.8949 62.8084 41.5201C65.8948 39.9602 67.9392 36.4156 68.6074 33.4259C68.7233 32.9073 69.1934 32.5155 69.7083 32.6464C73.4862 33.607 75.3364 38.4939 74.9886 43.0559C74.6132 47.9797 71.7347 51.775 67.3292 51.4391Z" stroke="#FC0061" stroke-opacity="0.97" stroke-width="2"/>
<path d="M46.5 10.5C46.5 16.0461 42.224 20.5 37 20.5C31.776 20.5 27.5 16.0461 27.5 10.5C27.5 4.95388 31.776 0.5 37 0.5C42.224 0.5 46.5 4.95388 46.5 10.5Z" stroke="#FC2578"/>
<path d="M91 59.5V12.5L97 23.5" stroke="black"/>
<path d="M107 45.5L112 60V13" stroke="black"/>
<path d="M124.5 41V13.5H140" stroke="black"/>
<path d="M127.5 44.5H124.5V60H140" stroke="black"/>
<path d="M150 13L158 60" stroke="black"/>
<path d="M162 44.3333L167.909 17.7L179.727 60L188 13" stroke="black"/>
<path d="M208 40V12.5H223" stroke="black"/>
<path d="M211 45H208V60H224" stroke="black"/>
<path d="M235 30V12.5H243.5" stroke="black"/>
<path d="M235 48.5H246L254.5 61.5" stroke="black"/>
<path d="M266 62L281.5 14.5L297.5 62" stroke="black"/>
<path d="M279.5 52L283.5 62" stroke="black"/>
<path d="M243.5 12.5L245.463 13.6036C258.707 21.0498 258.287 40.2584 244.73 47.1185L242 48.5" stroke="black" stroke-linecap="round"/>
</svg>
