<svg width="450" height="107" viewBox="0 0 353 107" fill="none" xmlns="http://www.w3.org/2000/svg"><g filter="url(#a)"><path d="M0 53.5C0 23.953 23.953 0 53.5 0H246c59.094 0 107 47.906 107 107H53.5C23.953 107 0 83.047 0 53.5Z" fill="url(#b)"/><path d="M53.5.5H246c58.652 0 106.23 47.412 106.499 106H53.5c-29.271 0-53-23.729-53-53s23.729-53 53-53Z" stroke="#fff"/></g><g filter="url(#c)"><path d="M0 53.5C0 23.953 23.953 0 53.5 0H246c59.094 0 107 47.906 107 107H53.5C23.953 107 0 83.047 0 53.5Z" fill="#fff" fill-opacity=".05"/><path d="M53.5.5H246c58.652 0 106.23 47.412 106.499 106H53.5c-29.271 0-53-23.729-53-53s23.729-53 53-53Z" stroke="#fff" stroke-opacity=".05"/></g><defs><filter id="a" x="-200" y="-200" width="753" height="507" filterUnits="userSpaceOnUse" color-interpolation-filters="sRGB"><feFlood flood-opacity="0" result="BackgroundImageFix"/><feGaussianBlur in="BackgroundImageFix" stdDeviation="100"/><feComposite in2="SourceAlpha" operator="in" result="effect1_backgroundBlur_17_186"/><feBlend mode="normal" in="SourceGraphic" in2="effect1_backgroundBlur_17_186" result="shape"/></filter><filter id="c" x="-200" y="-200" width="753" height="507" filterUnits="userSpaceOnUse" color-interpolation-filters="sRGB"><feFlood flood-opacity="0" result="BackgroundImageFix"/><feGaussianBlur in="BackgroundImageFix" stdDeviation="100"/><feComposite in2="SourceAlpha" operator="in" result="effect1_backgroundBlur_17_186"/><feBlend mode="normal" in="SourceGraphic" in2="effect1_backgroundBlur_17_186" result="shape"/></filter><linearGradient id="b" x1="176.5" y1="0" x2="176.5" y2="107" gradientUnits="userSpaceOnUse"><stop stop-color="#FFD8E4"/><stop offset="1" stop-color="#DE0044"/></linearGradient></defs></svg>